<?xml version="1.0" standalone="no"?>
<!DOCTYPE svg PUBLIC "-//W3C//DTD SVG 20010904//EN"
 "http://www.w3.org/TR/2001/REC-SVG-20010904/DTD/svg10.dtd">
<svg version="1.0" xmlns="http://www.w3.org/2000/svg"
 width="1050.000000pt" height="1050.000000pt" viewBox="0 0 1050.000000 1050.000000"
 preserveAspectRatio="xMidYMid meet">
<metadata>
Created by potrace 1.14, written by Peter Selinger 2001-2017
</metadata>
<g transform="translate(0.000000,1050.000000) scale(0.100000,-0.100000)"
fill="#000000" stroke="none">
<path d="M5166 9961 c-63 -33 -119 -71 -112 -78 2 -3 -3 -13 -12 -23 -21 -23
-28 -32 -77 -100 -22 -30 -42 -57 -45 -60 -19 -16 -50 -81 -44 -91 5 -8 3 -9
-5 -5 -8 5 -14 0 -18 -13 -3 -12 -10 -21 -15 -21 -5 0 -7 -4 -4 -9 3 -5 -1
-14 -9 -21 -8 -7 -12 -16 -9 -21 3 -5 -2 -9 -10 -9 -10 0 -13 -6 -9 -17 4 -11
3 -14 -5 -9 -11 6 -17 -5 -13 -26 0 -5 -4 -8 -10 -8 -6 0 -8 -7 -5 -16 3 -8 2
-12 -4 -9 -6 3 -10 -1 -10 -10 0 -9 -4 -14 -9 -11 -4 3 -7 -6 -6 -19 3 -24
-13 -30 -28 -10 -4 6 -6 -1 -5 -15 2 -14 -2 -25 -9 -26 -7 -1 -18 -2 -24 -3
-5 0 -7 -5 -4 -11 3 -5 1 -10 -6 -10 -6 0 -9 8 -7 18 4 14 -1 18 -19 18 -15 0
-22 -5 -19 -13 3 -7 1 -13 -5 -13 -6 0 -8 -4 -5 -8 2 -4 -4 -13 -15 -20 -16
-10 -19 -9 -19 3 0 8 -5 15 -11 15 -5 0 -7 -6 -4 -12 4 -7 -2 -3 -13 9 l-19
22 -30 -28 c-26 -24 -33 -26 -48 -15 -20 15 -39 9 -32 -10 3 -7 -1 -13 -9 -13
-7 0 -10 5 -7 11 4 6 0 5 -9 -2 -14 -11 -20 -9 -43 15 -15 15 -25 23 -21 16 3
-6 2 -14 -4 -18 -6 -4 -7 -11 -4 -17 4 -6 2 -8 -4 -4 -6 3 -9 15 -7 25 2 10
-3 18 -11 18 -10 0 -11 -4 -3 -13 7 -8 7 -14 -1 -19 -5 -3 -10 -1 -10 5 0 6
-5 8 -10 5 -6 -3 -13 1 -16 9 -3 9 -11 16 -16 16 -6 0 -5 -6 2 -15 13 -15 5
-39 -11 -29 -5 3 -7 9 -4 14 3 5 0 12 -7 16 -7 4 -10 4 -6 -1 4 -4 0 -14 -10
-22 -9 -8 -11 -11 -3 -7 9 5 12 3 7 -4 -4 -7 -18 -12 -32 -12 -14 0 -22 -4
-19 -10 10 -16 -1 -11 -16 7 -8 9 -9 14 -4 11 6 -4 17 -2 25 4 12 8 12 9 -2 4
-10 -3 -18 -1 -18 5 0 15 -30 -17 -30 -33 -1 -7 -7 -2 -14 11 -13 23 -14 23
-19 5 -4 -16 -5 -15 -6 5 -1 16 -6 21 -15 18 -9 -4 -17 2 -21 14 -4 10 -11 19
-16 19 -5 0 -26 16 -46 36 -21 20 -32 33 -24 29 9 -5 12 -4 7 3 -4 7 -13 12
-21 12 -8 0 -17 5 -21 12 -5 7 -2 8 7 3 8 -4 4 2 -8 14 -12 11 -28 21 -35 21
-9 0 -9 3 2 10 12 8 10 10 -8 10 -13 0 -20 4 -17 10 3 5 -5 15 -19 22 -14 6
-26 14 -26 18 0 3 -18 14 -40 24 -22 10 -38 21 -35 26 3 4 -10 14 -28 21 -17
7 -34 16 -37 19 -13 15 -70 50 -70 43 0 -4 -7 0 -14 10 -8 10 -17 18 -20 17
-4 -1 -17 1 -29 5 -12 4 -28 8 -35 10 -8 2 -30 11 -50 21 -49 24 -62 25 -55 6
4 -9 2 -13 -4 -9 -6 4 -13 -2 -16 -13 -3 -11 -1 -20 5 -20 5 0 6 -5 2 -12 -10
-16 -12 -278 -2 -305 4 -14 4 -23 -3 -23 -6 0 -7 -5 -4 -11 7 -11 14 -72 17
-156 1 -29 5 -53 8 -53 3 0 7 -11 8 -25 1 -14 10 -44 21 -67 11 -24 23 -54 28
-68 9 -29 12 -90 3 -85 -3 2 -10 -8 -17 -21 -6 -13 -7 -22 -2 -18 10 6 10 2
13 -63 0 -23 -3 -39 -8 -35 -5 3 -7 -2 -3 -11 4 -10 1 -17 -6 -17 -8 0 -8 -3
2 -9 11 -7 11 -9 0 -14 -11 -4 -11 -6 -1 -6 10 -1 10 -6 1 -22 -9 -17 -8 -20
3 -13 11 6 11 5 -1 -9 -11 -14 -11 -17 0 -17 11 0 11 -2 -1 -10 -13 -9 -13
-10 0 -11 8 -1 18 -1 23 0 16 2 6 -17 -15 -27 -19 -10 -20 -11 -4 -9 10 1 20
-4 22 -11 1 -7 0 -8 -3 -2 -3 8 -9 7 -19 -1 -17 -14 -18 -29 -3 -29 5 0 7 6 3
13 -5 8 -2 8 9 -2 19 -15 23 -26 7 -16 -7 4 -9 -3 -6 -19 3 -15 -2 -32 -10
-41 -9 -8 -11 -15 -5 -15 6 0 11 -5 11 -11 0 -5 -5 -7 -12 -3 -8 5 -9 2 -5 -9
4 -12 1 -17 -11 -17 -13 0 -14 -2 -3 -9 10 -7 11 -9 1 -13 -16 -5 -22 -38 -7
-35 6 1 11 -14 12 -33 1 -19 0 -29 -2 -22 -3 6 -9 12 -14 12 -6 0 -7 -6 -1
-16 10 -18 -6 -74 -21 -74 -4 0 -6 4 -2 9 3 5 1 12 -4 15 -5 4 -8 -2 -7 -11 4
-26 22 -27 40 -2 15 22 15 22 13 1 0 -11 -5 -18 -9 -16 -12 8 -9 -11 4 -24 8
-8 8 -15 0 -25 -7 -8 -10 -16 -7 -18 2 -3 -4 -5 -15 -5 -10 0 -17 3 -15 6 2 4
-2 7 -9 7 -8 0 -12 -7 -8 -15 4 -11 1 -13 -8 -7 -9 5 -11 4 -6 -4 4 -6 11 -9
16 -6 4 3 11 -2 14 -11 3 -8 10 -13 15 -9 6 3 8 -6 5 -21 -3 -18 -1 -23 7 -18
8 4 9 3 5 -4 -4 -6 -13 -9 -22 -5 -12 4 -12 8 -2 22 12 14 11 15 -5 2 -18 -14
-18 -15 5 -33 19 -15 20 -18 6 -18 -10 0 -18 -5 -18 -11 0 -5 5 -7 10 -4 6 3
10 1 10 -5 0 -6 5 -8 12 -4 7 5 8 3 4 -5 -5 -7 -15 -10 -23 -7 -8 3 -11 1 -8
-4 3 -6 0 -12 -7 -15 -9 -4 -12 -18 -10 -45 3 -24 -1 -47 -9 -58 -10 -12 -7
-12 10 3 l23 20 -13 -28 c-10 -22 -10 -30 -1 -36 6 -4 11 -18 10 -31 -2 -48 1
-53 18 -35 13 13 19 14 25 4 4 -7 5 -19 2 -26 -3 -9 0 -14 8 -13 28 4 38 0 33
-15 -4 -8 -10 -15 -15 -15 -4 0 -5 8 -2 17 6 15 5 16 -9 3 -15 -14 -14 -16 5
-26 15 -9 17 -13 6 -17 -12 -5 -12 -6 0 -6 11 -1 10 -5 -5 -16 -13 -10 -14
-13 -3 -10 9 3 22 -2 30 -11 9 -12 10 -15 2 -10 -20 11 -15 -8 8 -38 15 -19
27 -25 41 -20 13 4 18 2 14 -4 -3 -5 0 -15 8 -21 8 -7 13 -20 11 -29 -1 -9 4
-28 12 -41 8 -13 10 -20 4 -17 -6 4 -11 1 -11 -6 0 -7 -10 -19 -21 -27 -19
-11 -21 -11 -16 3 6 15 4 14 -18 -1 -25 -19 -32 -33 -15 -33 6 0 10 5 10 11 0
6 5 9 11 7 6 -2 9 -6 7 -10 -2 -3 5 -15 15 -25 19 -21 14 -35 -9 -26 -8 3 -14
2 -13 -3 4 -23 -2 -36 -15 -31 -10 4 -12 0 -9 -14 3 -11 0 -19 -6 -19 -7 0 -9
5 -5 12 4 6 3 8 -4 4 -6 -3 -9 -15 -7 -26 2 -11 0 -20 -5 -20 -5 0 -7 -9 -5
-21 3 -16 0 -19 -13 -14 -9 3 -13 3 -9 -1 4 -4 1 -14 -6 -22 -8 -10 -8 -13 -1
-9 7 4 15 0 18 -8 3 -9 -1 -18 -10 -22 -13 -5 -13 -7 -2 -14 10 -7 10 -9 1 -9
-7 0 -13 -7 -13 -15 0 -8 -5 -15 -11 -15 -5 0 -7 -4 -4 -10 3 -5 0 -10 -7 -10
-9 0 -9 -3 2 -10 8 -5 10 -10 5 -10 -6 0 -11 -9 -12 -20 -1 -11 2 -18 8 -15 5
4 9 1 9 -4 0 -6 -8 -11 -17 -11 -15 0 -16 -2 -3 -10 12 -7 12 -10 1 -10 -7 0
-11 -6 -8 -14 3 -8 -1 -17 -9 -20 -8 -3 -14 -11 -14 -17 0 -8 4 -8 15 1 13 11
14 10 9 -5 -5 -12 -4 -16 4 -11 6 3 13 2 17 -3 3 -6 -6 -8 -22 -5 l-28 5 30
-21 c29 -20 29 -21 4 -15 -24 6 -26 4 -26 -29 0 -20 4 -36 9 -36 5 0 6 -6 1
-12 -8 -14 -10 -19 -12 -44 0 -8 -6 -12 -12 -9 -12 8 11 -36 26 -48 6 -5 4 -7
-5 -4 -10 3 -16 -2 -17 -14 -1 -10 3 -19 8 -19 6 0 7 5 3 12 -4 7 -3 8 5 4 15
-10 4 -26 -17 -26 -14 0 -14 -2 -3 -9 9 -6 11 -15 6 -27 -5 -11 -9 -23 -10
-29 -3 -27 -18 -55 -28 -55 -7 0 -6 -4 3 -10 12 -8 12 -10 -3 -16 -9 -3 -17
-12 -17 -19 0 -7 -5 -15 -12 -17 -7 -3 -4 -7 7 -12 11 -4 16 -4 12 0 -8 9 11
34 27 34 6 0 4 -5 -4 -10 -8 -5 -11 -10 -6 -10 5 0 1 -9 -10 -21 -14 -16 -16
-24 -7 -38 15 -23 4 -36 -11 -15 -10 13 -12 13 -12 -5 0 -12 4 -21 8 -21 4 0
8 -8 8 -17 0 -15 -2 -16 -10 -3 -8 12 -10 11 -10 -7 0 -13 -4 -23 -10 -23 -5
0 -10 -9 -10 -20 0 -11 -3 -19 -7 -17 -5 1 -9 -1 -10 -6 -2 -4 0 -7 3 -6 4 0
11 -5 16 -13 8 -10 9 -9 4 4 -3 10 -1 20 4 23 6 4 10 -3 10 -14 0 -11 -5 -23
-10 -26 -6 -4 -8 -11 -5 -16 4 -5 2 -9 -3 -9 -6 0 -8 -10 -5 -22 4 -19 3 -20
-7 -8 -9 12 -10 8 -7 -21 3 -20 -1 -43 -9 -54 -7 -10 -11 -22 -8 -26 3 -5 1
-9 -4 -9 -14 0 -22 -38 -8 -44 6 -2 3 -5 -7 -5 -10 -1 -15 -5 -12 -11 3 -5 -1
-10 -9 -10 -9 0 -15 -3 -15 -7 3 -21 -2 -33 -15 -33 -7 0 -25 -11 -40 -25 -14
-13 -26 -22 -26 -19 0 3 -6 -1 -14 -8 -10 -9 -11 -15 -2 -20 10 -7 -14 -13
-36 -9 -5 0 -7 -4 -5 -11 1 -7 -5 -12 -13 -13 -8 0 -14 -8 -14 -18 2 -13 -1
-15 -11 -7 -9 7 -16 6 -26 -7 -12 -14 -12 -16 0 -9 9 6 12 5 9 -5 -3 -8 -11
-13 -17 -11 -7 1 -10 -2 -7 -7 3 -5 -1 -14 -9 -21 -13 -11 -14 -10 -9 4 3 9 1
16 -5 16 -6 0 -11 -6 -11 -14 0 -7 -12 -21 -26 -31 -18 -12 -24 -13 -19 -4 3
8 0 6 -8 -3 -8 -10 -18 -14 -22 -10 -5 4 -5 -1 -2 -11 4 -10 3 -16 -2 -12 -5
3 -16 -1 -24 -9 -8 -8 -18 -12 -23 -8 -5 4 -2 -1 5 -11 12 -15 12 -17 -3 -11
-9 3 -16 2 -16 -3 0 -5 9 -9 21 -10 15 -1 19 3 15 13 -4 10 -2 12 6 8 7 -4 8
-3 4 4 -4 7 -3 12 2 12 6 0 13 -7 16 -16 3 -8 2 -12 -4 -9 -6 3 -10 0 -10 -8
0 -7 -12 -19 -26 -25 -14 -7 -22 -17 -19 -22 3 -6 -4 -10 -16 -10 -12 0 -19
-3 -16 -7 4 -3 -2 -13 -13 -20 -11 -8 -18 -19 -15 -24 4 -5 1 -9 -5 -9 -6 0
-8 -4 -5 -10 3 -5 0 -10 -8 -10 -8 0 -21 -8 -30 -18 -13 -15 -14 -21 -4 -31 9
-10 8 -11 -7 -5 -15 6 -18 4 -13 -9 4 -11 2 -14 -9 -10 -9 3 -14 0 -12 -8 2
-8 -3 -13 -9 -12 -7 2 -14 0 -14 -5 -6 -31 -5 -51 1 -47 4 2 7 -2 7 -10 0 -18
-9 -19 -26 -2 -9 7 -12 8 -7 0 8 -15 -3 -45 -15 -37 -5 3 -9 1 -9 -5 0 -5 6
-12 13 -14 7 -3 5 -6 -5 -6 -10 -1 -18 -6 -18 -12 0 -5 5 -7 10 -4 6 3 10 1
10 -4 0 -6 -7 -11 -16 -11 -8 0 -12 -4 -9 -10 3 -5 1 -10 -5 -10 -6 0 -8 -5
-4 -12 5 -8 2 -9 -10 -5 -14 6 -15 4 -5 -16 11 -19 10 -20 -3 -10 -12 10 -15
10 -15 -2 0 -8 5 -15 11 -15 8 0 8 -2 0 -8 -10 -6 -27 -43 -24 -50 1 -2 -7
-11 -17 -19 -17 -14 -17 -14 1 -8 20 6 20 6 0 -16 -12 -15 -14 -20 -4 -15 9 5
8 2 -2 -7 -10 -8 -15 -17 -11 -20 3 -4 1 -7 -5 -7 -6 0 -9 -6 -6 -14 3 -7 -3
-17 -13 -21 -17 -7 -17 -8 2 -15 17 -7 17 -9 3 -9 -19 -1 -26 -31 -7 -31 6 0
3 -7 -6 -16 -15 -15 -15 -18 0 -34 14 -16 14 -19 1 -33 -12 -12 -13 -17 -3
-20 9 -4 9 -6 0 -6 -7 -1 -10 -7 -7 -14 2 -7 -7 -24 -21 -37 -19 -18 -22 -26
-14 -37 6 -7 8 -13 3 -13 -5 0 -2 -5 6 -10 12 -7 12 -12 2 -22 -6 -6 -12 -20
-12 -30 0 -10 -8 -18 -17 -19 -15 0 -15 -2 2 -9 11 -5 15 -9 8 -9 -7 -1 -10
-8 -7 -16 4 -10 0 -15 -12 -15 -17 0 -17 -1 0 -13 16 -12 17 -15 3 -28 -10
-11 -12 -20 -5 -32 5 -9 5 -17 1 -17 -5 0 -10 -8 -11 -17 -1 -10 -4 -27 -6
-38 -2 -11 -5 -24 -5 -28 -1 -5 -7 -5 -13 -1 -10 6 -10 5 -1 -7 10 -12 8 -19
-8 -33 -16 -14 -18 -20 -9 -32 9 -10 9 -14 1 -14 -6 0 -11 -8 -10 -17 0 -11 3
-13 6 -5 2 6 9 10 13 7 5 -3 12 0 16 6 4 8 3 9 -4 5 -8 -5 -10 -1 -5 9 8 22
20 2 17 -28 -1 -12 -3 -22 -5 -22 -1 0 -3 -21 -4 -47 -1 -27 2 -45 8 -41 5 3
3 -5 -4 -18 -7 -13 -12 -27 -11 -32 1 -4 -2 -7 -6 -7 -4 0 -8 -9 -9 -20 -1
-11 4 -20 10 -20 9 0 9 -2 1 -8 -21 -14 -21 -37 0 -62 11 -14 14 -19 6 -13
-20 18 -29 16 -27 -6 1 -12 6 -17 17 -13 12 4 12 1 -3 -15 -16 -18 -16 -21 -2
-33 14 -12 13 -15 -5 -35 l-21 -23 22 -16 c13 -9 17 -16 10 -16 -8 0 -11 -7
-8 -20 3 -12 -1 -24 -11 -30 -15 -8 -15 -9 3 -10 14 0 16 -3 7 -8 -8 -5 -10
-16 -6 -27 5 -11 4 -16 -3 -12 -5 3 -10 0 -10 -8 0 -8 3 -12 6 -10 4 2 15 -3
26 -11 10 -8 14 -14 7 -14 -6 0 -9 -9 -7 -20 2 -11 -1 -20 -7 -20 -6 0 -5 -6
3 -16 7 -9 9 -18 3 -22 -13 -10 -14 -42 0 -42 6 0 4 -5 -4 -10 -10 -6 -11 -10
-2 -10 6 0 12 -5 12 -11 0 -5 -4 -8 -9 -5 -5 4 -4 -5 2 -18 8 -16 14 -20 19
-13 4 6 2 15 -5 19 -7 4 -7 8 -2 8 6 0 17 -5 25 -10 10 -7 11 -10 2 -10 -14 0
-14 -58 1 -78 7 -9 5 -11 -9 -5 -17 6 -17 5 -5 -10 11 -14 11 -17 0 -17 -11 0
-11 -2 1 -10 8 -5 10 -10 4 -10 -16 0 -8 -58 11 -76 8 -9 15 -12 15 -7 0 5 -5
14 -11 20 -7 7 -7 13 -1 17 6 3 13 2 17 -4 3 -5 4 -10 0 -10 -3 0 -1 -10 6
-21 7 -13 7 -19 1 -15 -6 3 -13 2 -16 -3 -3 -5 4 -11 16 -14 16 -5 19 -9 11
-19 -6 -8 -7 -25 -1 -45 8 -30 18 -38 41 -34 5 1 6 -3 2 -8 -3 -6 -13 -8 -23
-5 -13 5 -14 4 -4 -4 8 -5 13 -12 13 -16 -3 -19 0 -27 8 -22 5 3 12 -1 15 -10
3 -8 2 -12 -4 -9 -6 3 -7 -1 -4 -9 3 -9 11 -16 16 -16 6 0 4 -7 -3 -16 -12
-15 -11 -16 11 -10 14 4 20 4 14 -1 -14 -11 -27 -46 -14 -38 6 3 11 1 11 -4 1
-6 2 -17 3 -23 1 -7 -3 -19 -8 -27 -8 -11 -8 -13 2 -7 7 4 12 2 12 -4 0 -6 5
-8 13 -4 9 6 9 5 0 -7 -8 -10 -9 -19 -1 -29 8 -12 9 -11 4 5 -6 19 -5 19 8 2
10 -14 15 -15 19 -5 3 7 3 -2 0 -19 -4 -23 -2 -33 7 -33 10 0 10 -3 0 -15 -7
-8 -8 -15 -3 -15 5 0 14 -14 20 -31 7 -17 16 -28 22 -25 6 4 8 -3 5 -16 -14
-66 -13 -78 6 -78 11 0 20 -3 21 -7 0 -5 2 -18 3 -30 1 -12 -1 -20 -5 -17 -4
2 -11 -1 -15 -8 -4 -7 -3 -10 1 -5 5 4 17 0 27 -9 14 -13 15 -20 7 -31 -9 -10
-7 -13 7 -14 18 0 18 -1 -1 -9 -11 -5 -15 -9 -8 -9 7 -1 10 -10 8 -22 -3 -12
-2 -19 1 -16 4 3 12 0 19 -6 10 -9 10 -15 1 -26 -8 -12 -8 -13 2 -7 6 4 12 3
12 -3 0 -5 -6 -12 -12 -14 -9 -4 -8 -6 2 -6 8 -1 21 -10 27 -21 11 -17 10 -18
-4 -13 -15 6 -16 5 -3 -9 12 -12 18 -13 29 -4 12 8 13 8 7 -2 -4 -7 -2 -12 6
-12 10 0 10 -2 -1 -9 -11 -7 -11 -9 0 -14 9 -3 7 -6 -6 -6 -16 -1 -17 -3 -5
-10 8 -6 17 -8 20 -6 4 2 7 -2 7 -9 0 -9 -7 -12 -16 -8 -13 5 -14 4 -1 -10 8
-8 20 -13 27 -11 14 6 36 -33 27 -49 -4 -7 -3 -8 4 -4 7 4 12 1 12 -8 0 -9 5
-16 12 -16 6 0 8 -3 5 -6 -3 -4 0 -16 8 -28 8 -11 15 -27 15 -34 0 -15 16 -33
45 -50 14 -8 15 -11 5 -12 -10 0 -7 -5 8 -16 12 -8 20 -20 17 -25 -4 -5 -2 -9
3 -9 6 0 8 -9 5 -20 -3 -12 0 -20 6 -20 7 0 9 -5 6 -10 -3 -5 -1 -10 4 -10 6
0 11 6 11 13 0 8 3 7 9 -3 6 -8 7 -18 5 -22 -3 -5 0 -7 8 -6 8 2 13 -6 12 -18
0 -13 4 -20 12 -17 10 4 30 -41 26 -59 -1 -5 3 -8 9 -8 5 0 8 -4 4 -9 -3 -5
-1 -12 5 -16 6 -4 8 -10 5 -15 -3 -4 5 -6 17 -3 19 4 20 3 8 -6 -13 -9 -12
-11 4 -11 12 0 16 -5 12 -16 -3 -8 -2 -13 3 -10 12 8 23 -22 14 -37 -3 -7 -3
-9 1 -5 9 8 48 -28 65 -61 7 -12 15 -20 19 -17 4 2 14 -3 22 -12 13 -14 12
-15 -5 -9 -13 5 -10 -1 10 -17 19 -16 25 -25 15 -26 -9 0 -2 -9 15 -20 17 -11
26 -20 21 -20 -5 0 3 -11 19 -24 15 -13 24 -29 21 -35 -4 -6 -2 -11 3 -11 6 0
11 -9 11 -20 0 -11 7 -20 15 -20 9 0 12 -6 8 -17 -4 -11 -3 -14 5 -9 8 5 12
-2 12 -19 0 -15 4 -24 10 -20 6 3 10 1 10 -5 0 -6 5 -8 13 -4 7 5 6 0 -3 -11
-14 -17 -13 -18 2 -12 12 4 15 2 11 -9 -3 -9 1 -14 12 -14 9 0 14 4 10 9 -3 5
-1 12 4 16 6 3 8 -5 5 -20 -2 -14 -1 -25 3 -24 20 3 47 -3 35 -8 -9 -3 -4 -14
17 -33 16 -16 27 -31 23 -34 -3 -3 0 -6 7 -6 7 0 9 -5 6 -10 -3 -6 -1 -10 5
-10 7 0 10 -7 6 -15 -3 -8 3 -19 12 -25 15 -8 15 -11 2 -20 -10 -6 -11 -10 -2
-10 22 0 27 4 24 20 -2 11 0 10 8 -3 6 -9 9 -21 6 -26 -3 -4 5 -6 18 -4 13 3
27 -1 31 -8 5 -8 4 -10 -4 -5 -8 6 -8 1 1 -18 10 -22 28 -32 42 -23 9 5 45
-36 39 -46 -3 -5 2 -16 12 -24 14 -9 15 -13 4 -13 -8 0 -3 -6 11 -13 18 -9 25
-20 24 -40 -1 -14 2 -25 6 -22 10 6 39 -32 32 -42 -4 -4 2 0 14 10 26 22 41
22 23 0 -13 -15 -12 -15 8 -5 17 9 22 9 27 -4 4 -10 2 -13 -7 -8 -8 5 -9 4 -2
-4 9 -10 32 -17 66 -21 3 -1 6 -8 6 -17 0 -14 -2 -14 -11 -3 -6 8 -20 15 -31
17 -12 2 -16 0 -9 -5 6 -4 16 -17 22 -28 6 -11 12 -14 12 -7 0 7 4 11 9 7 6
-3 14 2 19 11 8 15 10 15 15 -1 4 -9 12 -13 18 -9 8 4 9 3 5 -4 -6 -10 4 -16
24 -14 3 0 7 -8 7 -19 1 -10 -2 -19 -8 -19 -5 0 -8 6 -7 13 2 6 -3 11 -9 9 -7
-1 -13 3 -13 9 0 5 -4 7 -10 4 -5 -3 2 -17 18 -30 15 -13 28 -19 30 -15 2 5
14 2 28 -6 13 -9 21 -20 18 -25 -3 -5 0 -9 5 -9 19 0 12 19 -14 36 -14 9 -25
21 -24 28 0 7 2 6 6 -1 2 -7 11 -13 18 -13 7 0 15 -7 19 -15 3 -8 11 -14 17
-13 6 2 14 -4 16 -12 4 -13 3 -13 -6 0 -7 10 -11 11 -11 3 0 -7 9 -17 20 -23
15 -8 18 -8 15 3 -4 8 3 13 16 14 17 2 18 -1 8 -13 -6 -8 -9 -17 -5 -21 3 -3
6 -2 6 3 0 12 45 12 57 0 4 -5 3 -6 -4 -2 -6 3 -15 2 -18 -4 -4 -6 -3 -10 2
-9 21 4 34 -2 27 -13 -5 -7 -3 -8 6 -3 16 10 60 13 60 5 0 -3 -5 -11 -11 -17
-9 -9 -6 -10 11 -6 15 4 26 1 32 -11 5 -9 14 -16 21 -16 7 0 6 4 -3 10 -11 7
-11 10 -2 10 7 0 17 -10 23 -22 9 -22 9 -22 6 2 -3 19 1 26 15 26 12 0 14 -4
8 -10 -6 -6 -10 -15 -10 -20 0 -6 5 -4 10 4 8 12 11 13 19 1 7 -10 10 -11 16
-1 6 10 10 10 19 -1 12 -15 49 -23 41 -9 -3 5 0 12 6 16 8 4 9 3 5 -4 -4 -7
-2 -12 4 -12 6 0 8 -4 5 -10 -3 -6 1 -7 9 -4 11 4 16 0 16 -10 0 -9 8 -16 21
-16 11 0 17 -4 14 -10 -3 -5 3 -10 15 -10 12 0 19 -4 15 -9 -6 -11 28 -24 66
-26 18 0 25 3 22 12 -4 10 -9 11 -19 2 -10 -8 -14 -8 -14 0 0 6 5 11 11 11 8
0 7 6 -2 18 -13 16 -13 16 6 2 11 -8 26 -23 33 -33 7 -9 19 -14 25 -10 18 11
47 11 47 0 0 -5 8 -3 17 4 9 8 14 9 10 3 -4 -7 0 -15 9 -18 8 -3 12 -2 9 3 -3
5 -1 12 5 16 5 3 10 1 10 -6 0 -10 3 -10 12 -1 15 15 28 15 28 1 0 -5 -4 -8
-8 -5 -5 3 -9 -1 -9 -9 0 -9 4 -11 11 -6 19 16 71 17 68 3 -1 -8 2 -11 8 -7 6
3 8 11 5 16 -3 5 0 7 7 4 29 -9 87 -12 82 -4 -3 5 0 9 5 9 6 0 11 -6 11 -12 0
-8 5 -5 11 4 8 15 13 16 29 6 10 -7 16 -17 14 -23 -3 -5 1 -2 9 8 11 14 16 15
20 5 4 -10 6 -10 6 0 1 6 6 12 11 12 6 0 9 -3 8 -7 -2 -5 2 -8 7 -8 6 0 9 3 7
8 -4 12 10 8 29 -9 16 -15 17 -14 12 8 l-6 23 22 -25 c12 -14 20 -19 16 -12
-3 6 -2 12 4 12 5 0 12 -6 14 -12 4 -10 6 -10 6 -1 1 7 8 10 16 7 8 -4 12 -10
9 -15 -3 -5 2 -6 10 -3 9 3 16 11 16 18 0 8 2 8 8 0 10 -16 66 -28 56 -13 -4
8 -3 9 5 5 24 -15 61 -14 61 2 0 13 2 13 13 -2 13 -17 14 -17 31 0 15 14 19
15 27 3 7 -11 9 -10 9 4 0 10 4 16 8 13 9 -5 59 -17 80 -18 6 -1 12 -5 12 -10
0 -4 5 -8 11 -8 5 0 7 5 3 11 -3 6 5 3 20 -6 14 -10 26 -13 26 -7 0 18 29 22
45 6 8 -9 15 -11 15 -5 0 6 10 16 22 22 18 10 24 8 36 -7 13 -17 14 -17 9 -1
-4 9 -4 17 0 17 3 0 12 -8 19 -17 10 -14 13 -15 14 -4 0 11 4 10 13 -4 11 -14
16 -15 22 -5 5 8 4 11 -2 7 -5 -3 -10 0 -10 8 0 13 3 13 16 1 9 -7 22 -11 29
-9 6 3 12 0 12 -6 0 -6 5 -11 11 -11 5 0 7 4 4 10 -3 5 1 10 9 10 9 0 16 -4
16 -10 0 -5 5 -10 11 -10 5 0 7 5 4 10 -7 11 23 9 42 -3 9 -5 11 -3 7 6 -3 8
0 18 7 23 8 4 10 3 5 -4 -10 -16 16 -15 33 0 11 10 13 10 7 1 -8 -15 10 -18
19 -3 6 10 40 8 51 -3 10 -10 26 -9 20 1 -3 5 1 9 9 9 8 0 14 -3 13 -6 -2 -22
5 -22 18 -1 8 14 13 17 10 7 -6 -18 4 -23 19 -8 17 16 51 17 70 1 17 -13 18
-13 13 1 -4 9 -1 16 8 16 7 0 11 -4 9 -8 -8 -13 22 -18 35 -6 10 9 11 9 6 0
-8 -15 10 -18 19 -3 8 13 25 13 25 -1 0 -5 -5 -7 -12 -3 -7 5 -8 3 -3 -6 6
-10 11 -9 22 5 12 18 17 14 14 -10 -1 -5 6 -1 14 9 8 11 15 15 15 10 0 -6 7
-11 15 -11 8 0 15 5 15 11 0 6 5 4 10 -4 6 -10 10 -11 10 -2 0 6 5 12 11 12 5
0 8 -4 4 -9 -3 -6 4 -8 17 -4 13 3 38 6 56 7 21 1 32 6 33 16 0 9 4 5 9 -8 11
-26 23 -30 13 -4 -6 15 -4 15 9 4 14 -11 18 -10 27 5 6 10 11 12 11 6 0 -15
50 -18 50 -3 0 6 5 10 11 10 5 0 7 -4 4 -10 -10 -16 6 -12 29 7 18 15 19 16 8
1 -11 -14 -10 -16 5 -13 10 1 17 8 15 14 -2 9 3 9 17 1 12 -6 29 -7 43 -1 13
4 29 6 37 3 9 -3 11 0 6 9 -6 11 -5 11 5 2 8 -8 20 -9 36 -3 15 6 26 5 30 -1
4 -8 9 -7 15 2 5 8 9 9 9 3 0 -6 17 -11 38 -12 34 -1 36 0 18 13 -23 18 -14
20 16 4 12 -6 18 -7 14 -1 -3 5 1 12 8 15 8 3 17 1 19 -6 3 -8 10 -6 25 6 12
11 22 14 26 8 4 -6 15 -7 29 -2 12 4 28 6 35 4 6 -3 12 -1 12 5 0 5 7 9 15 9
8 0 15 -5 15 -11 0 -7 3 -7 8 1 4 6 21 13 38 15 17 2 39 11 49 21 10 10 24 16
32 12 11 -4 13 -1 9 11 -5 14 -4 15 9 4 13 -11 14 -10 8 6 -6 17 -5 18 11 5
13 -11 16 -11 14 -1 -2 7 3 15 11 18 9 3 11 0 6 -9 -6 -9 -2 -9 11 2 10 9 25
14 32 12 6 -3 12 1 12 9 0 10 3 9 10 -2 5 -8 10 -10 10 -4 0 6 6 11 13 12 6 0
21 3 32 5 11 2 24 -1 28 -7 6 -7 7 -5 4 6 -3 9 1 19 9 22 8 3 12 2 9 -3 -3 -5
-1 -13 5 -16 6 -4 10 -3 9 2 -3 20 2 34 11 28 6 -3 10 -1 10 6 0 9 3 9 14 0
11 -10 17 -8 25 6 6 11 11 13 11 5 0 -7 5 -10 10 -7 6 4 8 11 5 16 -4 5 1 9
10 9 10 0 13 -5 9 -12 -5 -9 -2 -9 9 1 9 7 17 10 17 5 0 -5 5 -2 10 6 5 8 17
15 27 15 10 0 17 6 15 14 -2 11 0 12 10 3 11 -8 14 -7 16 9 4 41 6 48 12 44 8
-5 47 34 52 50 1 6 8 9 14 7 7 -1 16 3 20 9 4 8 3 9 -4 5 -7 -4 -12 -2 -12 3
0 6 5 11 10 11 6 0 10 7 10 16 0 8 5 12 10 9 6 -3 13 1 16 9 3 9 12 16 19 16
7 0 11 10 10 24 -3 24 26 66 46 66 6 0 7 4 4 10 -3 5 -1 10 5 10 6 0 8 4 5 10
-3 5 -1 10 5 10 6 0 8 5 5 10 -4 6 -1 9 7 8 7 -2 13 5 13 15 0 9 16 31 35 48
19 17 28 28 20 24 -13 -6 -13 -5 0 7 8 7 15 22 15 33 -1 11 4 23 10 27 6 5 3
8 -7 8 -10 0 -18 5 -18 11 0 6 6 9 13 6 9 -3 13 4 12 23 0 16 -4 26 -9 22 -5
-3 -6 2 -3 11 4 10 10 24 14 34 5 12 3 14 -8 8 -8 -5 -6 1 5 13 17 19 17 22 3
28 -9 3 -22 2 -29 -2 -10 -6 -11 -5 -1 8 7 8 9 19 5 23 -4 5 -2 5 4 2 7 -4 12
3 11 18 0 15 -4 22 -11 19 -6 -3 -3 1 7 9 16 13 16 15 2 21 -12 4 -14 10 -6
25 8 14 7 22 -3 30 -15 13 -16 28 -2 50 6 9 5 12 -2 7 -7 -4 -10 7 -9 35 2 25
-3 47 -11 55 -11 11 -11 14 0 14 10 0 10 2 -1 9 -8 5 -11 16 -8 24 3 9 1 18
-6 21 -9 3 -9 5 0 5 9 1 10 8 3 26 -7 17 -6 25 1 25 8 0 7 5 -1 15 -7 8 -9 15
-4 15 5 0 2 5 -6 10 -12 8 -12 10 -1 10 10 0 11 3 2 13 -6 8 -8 17 -4 21 4 4
1 11 -7 16 -8 5 -15 15 -16 22 0 7 -2 21 -2 31 -1 10 -12 22 -24 27 -13 5 -17
9 -10 9 6 1 12 5 12 11 0 5 -7 7 -15 3 -9 -3 -15 -2 -14 3 4 16 -13 44 -22 38
-5 -3 -9 0 -9 7 0 7 -3 10 -6 6 -10 -10 -32 17 -26 32 3 8 1 12 -5 8 -6 -4
-17 1 -24 10 -12 14 -12 16 1 9 8 -5 2 4 -15 20 -16 16 -34 28 -39 26 -5 -2
-4 4 3 12 10 12 9 14 -7 9 -13 -3 -26 3 -37 19 -11 15 -19 19 -22 11 -3 -7 -9
-13 -15 -13 -6 0 -8 7 -5 14 4 10 1 13 -7 10 -8 -3 -17 -1 -21 5 -3 6 -15 11
-26 11 -10 0 -24 9 -31 20 -14 21 -34 29 -22 8 4 -7 -3 -4 -16 7 -20 17 -22
17 -17 3 4 -12 2 -15 -9 -11 -7 3 -14 11 -14 19 0 8 -5 14 -11 14 -5 0 -8 -4
-5 -8 3 -5 -1 -9 -8 -9 -7 0 -13 6 -12 13 1 7 -2 13 -6 13 -29 3 -38 -1 -38
-16 -1 -17 -1 -17 -11 0 -10 17 -12 17 -29 2 -10 -9 -25 -17 -33 -19 -8 -1
-22 -8 -31 -15 -8 -7 -19 -10 -24 -7 -6 3 -15 -1 -22 -9 -7 -8 -17 -12 -23 -8
-6 3 -7 1 -3 -5 4 -7 3 -12 -2 -12 -6 0 -9 -8 -8 -17 0 -10 -6 -18 -14 -18 -9
0 -15 -11 -17 -27 -1 -15 -7 -36 -13 -47 -8 -16 -8 -21 1 -21 8 0 8 -4 2 -12
-15 -20 -17 -98 -3 -98 7 0 10 -7 7 -15 -4 -8 -2 -17 4 -20 5 -4 7 -10 4 -15
-3 -5 -1 -11 4 -15 6 -3 8 -12 4 -20 -3 -8 0 -15 6 -15 6 0 8 -7 4 -17 -5 -11
-3 -14 6 -8 10 6 11 3 2 -14 -10 -18 -9 -21 6 -21 15 0 16 -2 3 -10 -8 -5 -10
-10 -4 -10 7 0 15 -7 18 -16 3 -8 2 -12 -4 -9 -6 3 -10 1 -10 -4 0 -6 3 -11 8
-11 6 0 10 -17 15 -72 1 -9 5 -14 9 -12 4 3 8 0 8 -5 0 -6 -6 -11 -12 -11 -9
0 -8 -4 2 -10 10 -6 11 -10 2 -10 -14 0 -12 -21 3 -32 6 -4 1 -8 -9 -8 -11 0
-17 -3 -13 -6 3 -4 0 -19 -8 -34 -8 -15 -11 -31 -7 -35 4 -5 2 -5 -5 -1 -7 4
-14 -2 -18 -15 -4 -11 -22 -27 -41 -35 -19 -8 -34 -17 -34 -20 0 -3 5 -2 12 2
7 4 8 3 4 -4 -4 -7 -14 -12 -23 -12 -10 0 -13 -6 -9 -16 5 -14 4 -15 -9 -4
-12 10 -15 9 -16 -6 0 -11 -3 -14 -6 -6 -2 6 -9 12 -14 12 -6 0 -7 -4 -4 -10
3 -5 -3 -10 -14 -10 -11 0 -25 -8 -30 -17 -8 -14 -11 -15 -11 -3 0 12 -3 11
-11 -3 -7 -12 -15 -15 -27 -8 -19 9 -45 4 -38 -8 3 -4 -5 -7 -17 -6 -12 1 -28
-3 -36 -9 -15 -12 -18 -11 -40 7 -12 10 -13 9 -6 -3 6 -11 5 -12 -4 -4 -14 13
-61 -3 -61 -21 0 -5 -4 -5 -8 2 -8 12 -72 25 -72 15 0 -4 -19 -7 -42 -8 -24 0
-52 -4 -63 -8 -12 -5 -15 -4 -8 1 9 6 7 12 -7 21 -16 10 -21 9 -29 -6 -10 -15
-10 -15 -11 3 0 17 -2 17 -10 5 -5 -8 -10 -11 -10 -6 0 5 -6 3 -14 -3 -9 -7
-17 -8 -20 -2 -3 5 -22 8 -41 7 -19 -2 -32 1 -29 6 3 5 13 7 21 4 8 -3 11 -1
8 4 -4 6 -22 9 -41 7 -31 -4 -34 -2 -29 17 4 11 3 17 -2 11 -12 -15 -33 -17
-33 -3 0 9 -4 8 -10 -2 -8 -12 -10 -12 -10 -1 0 11 -3 11 -15 1 -12 -10 -15
-10 -15 0 0 9 -4 9 -17 -1 -14 -12 -15 -12 -9 -1 7 11 4 12 -10 4 -11 -5 -29
-8 -41 -7 -13 1 -23 -2 -23 -7 0 -5 -8 -5 -17 1 -11 5 -26 5 -42 0 -13 -6 -30
-8 -36 -5 -7 2 -18 0 -25 -4 -8 -5 -23 -2 -39 8 -14 10 -22 12 -18 5 4 -6 3
-14 -3 -18 -5 -3 -10 -2 -10 3 0 5 -18 9 -39 8 -22 0 -38 -3 -35 -7 4 -7 -82
8 -97 16 -5 4 -9 2 -9 -4 0 -12 -32 -2 -42 13 -5 7 -8 6 -8 -3 0 -11 -3 -11
-16 0 -13 10 -17 10 -25 -2 -5 -9 -9 -10 -9 -2 0 15 -240 13 -240 -2 0 -5 -4
-4 -9 4 -8 12 -15 13 -35 3 -19 -8 -26 -8 -30 1 -3 9 -5 8 -5 -1 -1 -8 -6 -10
-13 -5 -18 11 -39 13 -33 3 3 -5 1 -11 -5 -15 -5 -3 -10 2 -10 12 0 14 -2 15
-9 4 -5 -8 -16 -11 -26 -8 -9 4 -14 3 -10 -3 6 -9 -7 -14 -21 -7 -3 1 -10 -6
-16 -17 -8 -15 -12 -16 -20 -5 -8 11 -11 11 -15 1 -4 -9 -8 -10 -18 -2 -10 8
-15 8 -20 0 -5 -8 -11 -7 -23 2 -13 11 -14 11 -8 0 6 -9 3 -12 -10 -10 -11 2
-22 10 -26 18 -5 12 -7 11 -7 -3 -1 -10 -6 -15 -11 -12 -6 4 -8 11 -5 16 4 5
1 9 -4 9 -6 0 -11 -8 -11 -17 0 -15 -2 -16 -10 -3 -9 13 -11 13 -20 0 -8 -12
-10 -12 -10 5 0 17 -2 17 -10 5 -8 -12 -10 -12 -10 -1 0 10 -3 11 -14 2 -10
-9 -16 -8 -26 4 -11 13 -15 13 -22 3 -7 -10 -9 -10 -5 2 2 8 10 15 18 15 8 1
13 7 11 14 -1 7 2 10 8 6 6 -3 8 -12 4 -18 -3 -7 0 -5 8 3 7 8 20 15 28 15 8
0 14 5 13 12 -2 7 4 10 12 7 9 -4 15 0 15 7 0 11 3 11 10 -1 5 -8 10 -10 10
-5 0 17 38 36 46 23 4 -7 3 -8 -4 -4 -8 5 -10 1 -5 -10 4 -11 8 -13 11 -6 2 7
12 12 23 12 10 0 19 4 19 10 0 5 10 20 23 33 96 102 125 139 95 121 -8 -5 -8
-1 2 12 22 29 24 30 17 12 -4 -10 -2 -18 3 -18 6 0 10 6 10 14 0 8 8 17 17 20
15 6 15 8 3 16 -13 8 -12 10 3 10 10 0 15 4 12 10 -3 5 -2 10 4 10 6 0 8 7 4
15 -3 10 0 15 8 13 8 -2 13 3 11 10 -1 6 3 11 10 10 7 -2 13 4 13 12 2 25 17
50 26 44 5 -3 6 3 2 12 -5 13 -3 15 8 9 8 -4 11 -5 7 0 -11 12 11 45 30 45 15
0 15 2 2 10 -14 9 -13 11 9 14 5 0 13 5 18 10 5 5 3 6 -4 2 -16 -9 -16 -4 0
28 8 14 16 23 19 20 3 -2 3 13 1 35 -3 21 0 42 6 45 5 4 8 13 4 21 -3 9 1 15
11 15 9 0 16 5 16 11 0 5 -4 8 -8 5 -4 -2 -8 5 -9 17 0 12 1 16 4 10 3 -7 9
-13 14 -13 6 0 5 8 -1 20 -17 32 -4 23 19 -13 11 -17 21 -27 21 -20 0 6 -5 15
-10 18 -6 4 -8 11 -4 16 3 5 10 6 16 3 7 -5 8 -2 3 6 -4 7 -2 16 6 22 11 7 9
8 -6 5 -11 -2 -19 -9 -17 -16 1 -7 -2 -10 -8 -6 -14 8 6 35 26 35 8 0 11 6 7
16 -3 9 0 20 8 25 12 7 12 9 -1 9 -13 0 -13 2 -1 9 11 7 12 13 3 23 -9 11 -8
19 3 35 8 11 11 24 7 28 -4 3 -2 6 3 5 21 -5 27 1 16 14 -9 11 -9 16 0 22 7 4
10 3 6 -2 -3 -5 1 -18 9 -28 12 -18 13 -17 10 12 -4 25 -1 30 12 26 13 -4 12
-2 -3 11 -20 17 -20 17 2 11 28 -9 37 7 22 36 -10 20 -10 21 2 11 11 -9 14 -7
16 14 0 14 6 35 11 47 21 43 32 87 20 80 -7 -5 -8 -3 -4 5 5 7 15 10 24 6 9
-3 13 -3 9 1 -4 4 -2 13 4 21 6 7 9 13 5 13 -3 0 -1 11 4 25 6 16 6 25 0 25
-10 0 -11 -4 -14 -39 0 -11 -4 -22 -7 -26 -10 -9 -3 50 7 66 8 14 13 29 16 60
1 9 8 16 16 15 18 -1 25 34 10 52 -9 10 -8 12 2 10 9 -2 14 8 14 34 0 28 5 40
18 44 10 3 18 8 19 12 0 4 2 15 4 25 2 9 -1 17 -6 17 -5 0 -9 5 -9 11 0 5 4 8
9 5 5 -3 14 1 20 8 9 11 9 16 0 22 -8 5 -9 3 -4 -6 5 -9 4 -11 -4 -6 -6 4 -9
12 -6 17 11 17 14 50 5 44 -6 -3 -7 1 -4 9 3 9 11 13 18 9 8 -5 8 -3 0 8 -6 8
-14 24 -16 36 -5 17 -2 20 11 16 13 -5 14 -3 4 8 -7 7 -13 19 -13 27 0 8 5 10
13 6 9 -6 9 -4 -1 8 -19 24 -24 58 -6 51 8 -3 14 0 14 6 0 6 -6 11 -12 12 -7
0 -4 4 7 9 15 6 16 9 4 9 -9 1 -16 8 -16 16 0 11 4 12 14 3 7 -6 16 -8 20 -4
3 3 2 6 -3 6 -5 0 -10 16 -11 35 -2 19 1 35 7 35 5 0 7 -8 4 -17 -5 -15 -4
-16 5 -3 8 11 7 18 -4 26 -17 13 -20 34 -4 34 5 0 7 -5 3 -12 -4 -7 -3 -8 5
-4 9 6 9 11 0 22 -6 8 -8 14 -3 14 4 0 -1 7 -12 15 -10 8 -14 15 -7 15 6 0 9
9 6 20 -3 11 -10 17 -17 13 -6 -4 -6 -1 2 9 10 12 10 18 -2 27 -9 7 -13 24
-11 42 2 16 -1 29 -6 29 -6 0 -7 -4 -4 -10 10 -16 -1 -11 -16 7 -8 10 -9 14
-2 10 6 -4 14 -3 18 3 3 5 1 10 -4 10 -6 0 -11 5 -11 11 0 5 4 7 10 4 6 -3 7
1 4 9 -3 9 -10 16 -15 16 -5 0 -9 7 -9 15 0 8 -5 15 -11 15 -8 0 -8 5 1 15 10
12 9 15 -4 15 -10 0 -15 4 -12 9 3 5 0 11 -8 14 -9 4 -12 18 -10 47 3 30 0 39
-9 34 -9 -5 -9 -4 1 7 17 19 15 34 -3 19 -9 -7 -18 -10 -22 -6 -3 3 -1 6 5 6
14 0 12 22 -3 32 -6 5 -5 8 4 8 9 0 7 5 -6 18 -10 9 -13 13 -6 8 10 -6 12 -4
7 8 -3 9 -11 16 -16 16 -6 0 -4 8 3 17 7 10 9 15 4 10 -12 -10 -45 22 -38 39
3 8 0 14 -6 14 -6 0 -11 9 -11 20 0 11 -4 20 -8 20 -5 0 -9 7 -9 15 0 9 5 14
11 12 6 -2 11 -9 11 -15 0 -5 2 -13 6 -16 3 -3 5 5 5 19 0 13 -3 22 -7 19 -4
-2 -10 0 -14 6 -4 6 -11 7 -17 4 -7 -4 -8 -2 -4 5 4 6 12 9 17 6 5 -4 9 -1 9
4 0 6 -5 11 -11 11 -6 0 -9 7 -5 15 3 10 -1 15 -12 15 -15 0 -15 2 -2 10 12 8
12 10 1 10 -8 0 -11 7 -8 19 4 15 1 18 -12 13 -13 -5 -14 -3 -3 10 10 13 10
19 -2 31 -9 8 -14 28 -13 43 2 24 -1 28 -18 25 -19 -3 -19 -2 -2 16 14 16 14
20 2 20 -8 0 -12 -3 -10 -7 2 -4 -2 -7 -10 -7 -8 0 -11 5 -7 11 3 6 7 17 9 25
1 8 8 18 15 22 7 5 8 9 2 9 -5 0 -15 -5 -21 -11 -7 -7 -10 -3 -8 15 2 14 6 30
10 35 3 6 2 11 -4 11 -5 0 -11 -5 -13 -12 -3 -7 -7 -5 -11 6 -4 10 -3 15 3 11
6 -3 10 -1 10 5 0 6 4 8 10 5 6 -3 7 1 4 9 -3 9 -13 16 -21 16 -13 0 -13 2 -2
17 10 11 10 14 2 9 -16 -9 -17 16 -2 31 8 8 7 13 -2 18 -8 6 -10 4 -4 -6 5 -8
4 -11 0 -7 -13 12 -16 60 -3 52 6 -4 5 2 -2 15 -6 12 -16 18 -22 15 -7 -4 -8
-3 -4 4 4 7 2 12 -3 12 -6 0 -11 5 -11 11 0 5 5 7 10 4 6 -3 10 -2 10 2 0 5
-9 14 -20 21 -11 7 -20 19 -20 27 0 8 -5 15 -11 15 -8 0 -7 6 2 17 12 14 12
16 0 8 -10 -5 -12 -4 -7 3 13 21 15 51 4 58 -7 5 -8 2 -3 -7 5 -8 4 -11 -1 -6
-5 5 -9 16 -9 25 0 9 -5 16 -11 15 -6 -1 -11 8 -10 20 1 15 -4 21 -14 19 -10
-3 -9 3 5 19 11 12 16 20 10 17 -5 -3 -16 0 -23 8 -10 11 -10 14 0 14 9 0 10
2 2 8 -11 7 -15 74 -4 67 3 -2 11 3 18 11 9 10 10 14 1 14 -7 0 -4 9 7 22 10
12 13 18 7 14 -19 -11 -15 5 5 20 11 9 12 13 4 14 -10 0 -10 5 -2 20 8 15 8
20 -1 20 -8 0 -8 4 1 15 6 8 9 18 7 23 -3 4 -2 14 3 22 5 9 5 19 -2 27 -6 8
-7 13 -1 13 6 0 9 11 8 25 -2 14 1 23 6 19 5 -3 6 -10 3 -16 -5 -7 -2 -8 5 -4
7 5 10 11 7 14 -3 3 0 12 7 20 10 13 9 15 -5 9 -12 -4 -15 -2 -11 8 3 8 10 12
17 8 6 -4 4 2 -4 12 -12 15 -12 17 -1 10 11 -6 13 -4 8 8 -3 9 -2 19 3 22 5 3
7 12 3 20 -3 8 0 15 7 15 7 0 6 6 -4 16 -20 20 -20 25 0 17 12 -4 15 -2 12 8
-3 8 -12 13 -19 11 -9 -1 -8 3 4 11 20 16 23 32 5 21 -10 -6 -10 -4 0 7 6 7
12 25 12 40 0 15 5 31 10 34 6 4 8 11 4 16 -10 17 -12 59 -2 65 5 3 4 12 -3
20 -6 8 -9 23 -6 34 3 11 0 20 -6 20 -7 0 -5 5 3 10 13 9 13 11 0 20 -10 6
-11 10 -2 10 6 0 12 5 12 11 0 5 -5 7 -11 3 -7 -4 -4 7 7 25 10 17 22 31 26
31 5 0 3 10 -4 21 -11 18 -11 23 0 26 10 4 9 8 -4 17 -13 10 -14 15 -4 21 9 6
11 4 5 -6 -5 -8 -4 -10 0 -6 17 15 14 39 -3 33 -15 -5 -15 -4 -2 6 17 14 24
51 8 42 -6 -4 -8 -1 -6 7 3 8 1 22 -4 33 -7 12 -7 16 0 12 6 -4 8 2 4 16 -4
16 -2 19 9 13 8 -5 5 1 -5 13 -15 17 -16 22 -5 22 9 0 15 10 15 25 0 19 -4 24
-15 20 -13 -4 -13 -3 1 8 15 12 15 14 0 26 -15 11 -15 11 3 6 17 -5 17 -3 -5
21 -14 15 -19 24 -12 20 6 -4 12 -2 12 4 0 6 6 8 13 4 10 -6 10 -4 0 7 -7 7
-13 17 -13 22 0 4 6 5 13 1 7 -5 7 -1 -2 10 -12 14 -12 19 -2 26 10 5 10 9 2
11 -7 3 -14 16 -15 31 -2 20 1 25 13 21 13 -5 14 -3 4 8 -7 7 -13 17 -13 22 0
4 6 5 13 1 10 -6 10 -4 0 7 -7 7 -13 21 -13 32 0 12 -4 16 -12 11 -9 -5 -9 -2
1 9 7 9 10 17 6 17 -4 0 -2 6 4 14 9 11 9 16 0 22 -8 5 -9 3 -4 -6 5 -8 4 -11
-2 -7 -11 7 -11 43 0 53 4 4 7 12 7 18 0 6 -5 4 -11 -4 -9 -12 -10 -12 -5 3 3
10 6 20 6 23 0 2 6 2 13 0 6 -1 9 -1 5 1 -12 7 -9 38 4 51 7 7 8 12 4 12 -5 0
-14 -7 -20 -16 -10 -13 -12 -11 -11 10 1 14 5 29 10 33 4 5 5 2 1 -4 -10 -19
-1 -16 15 4 10 11 10 14 2 9 -12 -7 -18 25 -16 82 1 6 -3 12 -9 12 -5 0 -7 4
-3 10 6 10 -10 43 -37 73 -9 11 -14 26 -11 35 5 11 3 13 -8 7 -12 -7 -12 -6
-1 7 10 13 10 17 -3 22 -8 3 -15 12 -15 21 0 8 -7 15 -15 15 -8 0 -15 7 -15
15 0 8 -4 15 -10 15 -5 0 -10 6 -10 14 0 8 -8 21 -17 28 -10 7 -19 20 -21 28
-2 8 -8 17 -13 18 -5 2 -9 11 -9 20 0 10 -9 23 -19 29 -12 8 -18 20 -16 33 3
13 -1 20 -13 20 -12 0 -13 3 -4 12 9 9 7 15 -6 25 -9 8 -12 12 -5 9 7 -4 10 1
8 11 -2 10 -4 26 -4 36 -1 10 -5 16 -10 12 -6 -3 -8 4 -6 17 3 12 11 26 20 30
20 12 19 28 -2 28 -17 1 -17 1 0 11 11 6 16 17 13 27 -7 20 29 47 46 36 6 -4
8 -3 4 4 -3 6 2 13 11 15 15 4 15 5 2 6 -12 1 -16 10 -15 31 0 17 5 30 9 30 5
0 7 -7 4 -14 -4 -11 -1 -13 11 -9 15 6 16 5 2 -13 -14 -18 -14 -18 3 -5 20 16
46 58 29 47 -6 -3 -9 2 -7 11 2 10 4 21 4 26 1 4 6 7 12 7 8 0 8 -5 -1 -15 -9
-10 -9 -15 -1 -15 10 0 13 7 10 26 0 4 5 11 13 15 10 7 10 9 0 9 -7 0 -10 5
-7 10 4 6 11 7 17 4 7 -4 8 -2 4 5 -4 6 -13 8 -19 4 -7 -4 -6 0 2 10 11 14 11
17 0 17 -11 0 -11 2 1 10 12 8 12 10 -5 11 -11 0 -14 3 -7 6 6 2 10 8 7 13 -3
4 4 6 15 3 11 -3 20 -9 20 -14 0 -5 7 -6 15 -3 11 5 13 2 9 -10 -3 -9 -4 -16
-1 -16 3 0 10 14 16 31 9 27 9 30 -4 19 -18 -15 -19 -7 -5 21 14 24 -5 26 -19
2 -6 -10 -10 -13 -10 -8 0 6 6 19 14 29 12 16 12 22 2 35 -7 9 -8 12 -1 8 16
-9 24 36 11 60 -5 10 -6 15 -2 10 5 -4 16 0 26 9 13 12 19 12 25 3 5 -8 3 -10
-6 -4 -9 6 -11 4 -5 -5 5 -9 4 -11 -3 -6 -8 5 -10 2 -6 -9 4 -8 0 -23 -7 -33
-13 -15 -12 -16 4 -3 9 7 17 20 17 28 0 8 5 11 10 8 6 -4 10 -3 9 2 -4 20 2
27 12 13 9 -13 10 -13 6 0 -2 8 -10 14 -16 12 -18 -4 -12 16 7 21 16 4 16 5 0
6 -11 1 -18 9 -18 21 0 11 -4 20 -10 20 -5 0 -10 5 -10 11 0 5 5 7 10 4 6 -3
10 -1 10 4 0 6 -5 11 -12 11 -6 0 -3 10 8 22 l19 22 -30 -18 -30 -19 20 24
c23 27 24 44 7 77 -7 12 -9 22 -5 22 4 0 -1 7 -11 15 -11 8 -17 18 -13 21 4 4
-1 13 -11 21 -16 12 -16 13 2 6 16 -5 18 -2 14 20 -4 19 -2 25 6 20 7 -5 4 -1
-6 9 -19 17 -24 48 -8 48 5 0 7 -8 4 -17 -5 -15 -4 -15 4 -3 7 9 7 19 2 26 -6
6 -7 14 -3 17 3 4 0 7 -8 7 -11 0 -11 2 1 10 13 8 13 10 -2 10 -9 0 -19 -6
-21 -12 -4 -10 -6 -10 -6 -1 -1 6 9 19 21 27 12 9 17 16 10 16 -7 0 -10 4 -7
10 3 6 -1 7 -9 4 -12 -5 -16 1 -16 25 0 17 -5 31 -11 31 -5 0 -7 5 -4 10 3 6
1 10 -5 10 -6 0 -8 5 -5 10 3 6 2 10 -3 10 -5 0 -15 14 -22 30 -10 25 -10 33
1 47 10 11 10 14 2 9 -8 -4 -13 -1 -13 8 0 9 -5 16 -11 16 -8 0 -9 4 0 13 6 8
8 17 4 21 -12 12 -12 36 0 36 7 0 4 5 -7 11 -15 9 -16 13 -5 20 11 7 10 9 -4
9 -14 0 -17 5 -12 20 5 16 3 19 -12 13 -16 -6 -16 -5 -4 10 11 14 11 17 0 17
-11 0 -11 2 1 10 10 6 11 10 3 10 -7 0 -13 7 -13 16 0 8 -4 12 -10 9 -5 -3
-11 -1 -11 4 -3 21 -4 26 -13 40 -7 11 -5 13 9 7 18 -7 18 -6 1 13 -10 11 -13
21 -7 25 6 4 0 23 -14 48 -13 23 -22 45 -19 49 2 4 0 11 -6 14 -7 4 -8 11 -1
18 6 8 3 25 -10 51 -22 45 -23 49 -9 41 16 -10 12 13 -7 34 -19 22 -25 101 -9
101 6 0 4 5 -4 10 -11 7 -12 12 -3 21 8 8 9 18 2 31 -7 12 -6 18 1 18 8 0 8 6
0 20 -8 14 -8 20 0 20 6 0 8 5 3 13 -4 6 -9 21 -10 32 -2 11 -17 64 -34 117
-17 54 -28 102 -24 107 3 5 1 12 -4 15 -5 4 -8 17 -6 31 1 14 -2 28 -6 31 -5
3 -9 16 -9 30 0 13 -4 24 -9 24 -4 0 -8 10 -7 23 1 12 -4 28 -11 35 -7 7 -13
23 -13 35 -1 27 -24 59 -36 49 -4 -4 -2 1 5 11 7 9 11 18 7 18 -14 3 -26 7
-28 9 -14 10 -47 4 -92 -19z m-1731 -1611 c3 -6 -1 -7 -9 -4 -18 7 -21 14 -7
14 6 0 13 -4 16 -10z m2285 -184 c0 -3 -4 -8 -10 -11 -5 -3 -10 -1 -10 4 0 6
5 11 10 11 6 0 10 -2 10 -4z m14 -44 c3 -5 -1 -9 -9 -9 -8 0 -12 4 -9 9 3 4 7
8 9 8 2 0 6 -4 9 -8z m-10 -177 c-23 -17 -34 -19 -34 -4 0 5 4 8 9 4 5 -3 12
-1 16 5 3 5 11 10 18 10 6 0 2 -7 -9 -15z m-2323 -52 c13 -16 12 -17 -3 -4
-10 7 -18 15 -18 17 0 8 8 3 21 -13z m2 -56 c3 -8 -1 -14 -8 -14 -7 0 -11 6
-8 14 3 7 6 13 8 13 2 0 5 -6 8 -13z m2267 9 c0 -3 -4 -8 -10 -11 -5 -3 -10
-1 -10 4 0 6 5 11 10 11 6 0 10 -2 10 -4z m-2246 -64 c3 -5 -1 -9 -9 -9 -8 0
-12 4 -9 9 3 4 7 8 9 8 2 0 6 -4 9 -8z m2203 -117 c0 -8 -3 -13 -5 -10 -3 3
-12 -1 -20 -8 -13 -11 -14 -9 -1 11 16 26 26 28 26 7z m-2114 -87 c4 -10 8
-10 15 1 5 7 12 9 15 4 3 -5 -2 -14 -12 -20 -14 -9 -20 -7 -29 8 -7 10 -8 19
-3 19 5 0 12 -6 14 -12z m2024 -54 c-3 -3 -12 -4 -19 -1 -8 3 -5 6 6 6 11 1
17 -2 13 -5z m-1972 -143 c3 -5 2 -12 -3 -15 -5 -3 -9 1 -9 9 0 17 3 19 12 6z
m1920 -61 c3 -5 1 -10 -4 -10 -6 0 -11 5 -11 10 0 6 2 10 4 10 3 0 8 -4 11
-10z m-2089 -485 c1 -8 -1 -17 -5 -19 -4 -3 -7 6 -7 19 0 25 8 25 12 0z m14
-55 c0 -5 -8 -10 -17 -10 -15 0 -16 2 -3 10 19 12 20 12 20 0z m-19 -39 c-6
-10 -7 -22 -3 -26 4 -5 1 -5 -6 -1 -9 5 -9 12 -2 27 6 10 13 19 16 19 2 0 0
-8 -5 -19z m2369 -555 c0 -3 -4 -8 -10 -11 -5 -3 -10 -1 -10 4 0 6 5 11 10 11
6 0 10 -2 10 -4z m-10 -286 c-1 -17 -17 -28 -30 -20 -12 8 -12 10 4 10 19 0
19 0 0 21 -19 22 -19 22 4 8 12 -8 22 -16 22 -19z m-19 -257 c13 -16 12 -17
-3 -4 -10 7 -18 15 -18 17 0 8 8 3 21 -13z m-3024 -155 c0 -13 -1 -17 -4 -10
-3 6 -10 9 -16 5 -7 -4 -6 1 2 10 17 21 17 21 18 -5z m-72 -88 c3 -5 1 -10 -4
-10 -6 0 -11 5 -11 10 0 6 2 10 4 10 3 0 8 -4 11 -10z m3115 -816 c0 -8 -19
-13 -24 -6 -3 5 1 9 9 9 8 0 15 -2 15 -3z m67 -249 c0 -8 -4 -12 -9 -9 -5 3
-6 10 -3 15 9 13 12 11 12 -6z m-3487 -413 c0 -13 -12 -22 -22 -16 -10 6 -1
24 13 24 5 0 9 -4 9 -8z m4 -171 c-8 -9 -22 12 -17 26 6 15 7 14 13 -3 4 -10
6 -21 4 -23z m91 -490 c3 -5 2 -12 -3 -15 -5 -3 -9 1 -9 9 0 17 3 19 12 6z
m3618 -236 c-3 -9 -8 -14 -10 -11 -3 3 -2 9 2 15 9 16 15 13 8 -4z m6 -61 c-6
-7 -17 -10 -26 -7 -13 5 -13 7 1 15 9 5 13 15 9 21 -4 7 0 6 10 -2 13 -10 14
-17 6 -27z m-3383 -420 c2 -12 -1 -13 -12 -3 -7 6 -11 16 -8 21 7 11 17 3 20
-18z m3222 -89 c-3 -3 -9 2 -12 12 -6 14 -5 15 5 6 7 -7 10 -15 7 -18z m1582
-158 c0 -8 -3 -8 -9 2 -7 10 -12 8 -25 -10 -9 -13 -16 -19 -16 -15 0 5 7 18
16 27 17 19 34 17 34 -4z m-2360 -857 c0 -5 -2 -10 -4 -10 -3 0 -8 5 -11 10
-3 6 -1 10 4 10 6 0 11 -4 11 -10z m3100 -4 c0 -2 -7 -7 -16 -10 -8 -3 -12 -2
-9 4 6 10 25 14 25 6z m-4716 -142 c3 -8 2 -12 -4 -9 -6 3 -10 10 -10 16 0 14
7 11 14 -7z m161 -192 c-3 -3 -11 0 -18 7 -9 10 -8 11 6 5 10 -3 15 -9 12 -12z
m148 -165 c4 3 7 -1 7 -10 0 -22 -2 -22 -31 10 -17 20 -18 23 -3 10 11 -9 24
-14 27 -10z m903 -402 c-6 -18 -26 -11 -26 8 0 7 4 6 10 -3 8 -13 10 -12 10 4
0 11 3 17 6 13 4 -3 4 -13 0 -22z m759 -24 c3 -5 2 -12 -3 -15 -5 -3 -9 1 -9
9 0 17 3 19 12 6z"/>
<path d="M3986 9338 c3 -4 9 -8 15 -8 5 0 9 4 9 8 0 5 -7 9 -15 9 -8 0 -12 -4
-9 -9z"/>
<path d="M4490 9340 c0 -5 5 -10 11 -10 5 0 7 5 4 10 -3 6 -8 10 -11 10 -2 0
-4 -4 -4 -10z"/>
<path d="M3434 8475 c0 -13 3 -22 7 -19 8 4 6 30 -2 38 -3 3 -5 -5 -5 -19z"/>
<path d="M3386 8262 c-2 -4 -1 -14 3 -21 6 -10 10 -9 14 3 6 16 -8 32 -17 18z"/>
<path d="M3395 8169 c-6 -8 -4 -10 5 -4 10 6 12 4 6 -11 -6 -15 -5 -17 5 -6 9
9 10 15 2 23 -8 8 -13 7 -18 -2z"/>
<path d="M3370 8080 c0 -5 5 -10 11 -10 5 0 7 5 4 10 -3 6 -8 10 -11 10 -2 0
-4 -4 -4 -10z"/>
<path d="M5735 7860 c-3 -5 -1 -10 4 -10 6 0 11 5 11 10 0 6 -2 10 -4 10 -3 0
-8 -4 -11 -10z"/>
<path d="M3406 7725 c-11 -8 -15 -15 -9 -15 6 0 16 7 23 15 16 19 11 19 -14 0z"/>
<path d="M3457 7614 c-4 -4 -4 -18 0 -32 4 -19 3 -23 -7 -17 -9 5 -11 4 -6 -4
12 -19 25 -2 23 29 -1 17 -2 30 -3 30 0 0 -4 -3 -7 -6z"/>
<path d="M3475 7541 c-3 -5 -2 -12 3 -15 5 -3 9 1 9 9 0 17 -3 19 -12 6z"/>
<path d="M3514 7508 l-19 -23 24 20 24 20 -6 -30 c-3 -16 -4 -24 -1 -17 3 6 9
10 14 7 11 -7 6 23 -6 35 -7 7 -17 3 -30 -12z"/>
<path d="M5521 7486 c-7 -8 -8 -17 -3 -20 6 -3 15 1 21 8 7 8 8 17 3 20 -6 3
-15 -1 -21 -8z"/>
<path d="M3550 7461 c0 -6 4 -13 10 -16 6 -3 7 1 4 9 -7 18 -14 21 -14 7z"/>
<path d="M5515 7440 c3 -5 8 -10 11 -10 2 0 4 5 4 10 0 6 -5 10 -11 10 -5 0
-7 -4 -4 -10z"/>
<path d="M3506 7365 c-11 -8 -14 -15 -7 -15 7 0 9 -5 5 -12 -6 -10 -5 -10 7
-1 12 10 18 10 29 0 8 -6 7 -3 -3 9 -9 11 -14 24 -10 27 11 12 -1 7 -21 -8z"/>
<path d="M3341 6664 c0 -11 3 -14 6 -6 3 7 2 16 -1 19 -3 4 -6 -2 -5 -13z"/>
<path d="M5757 6389 c7 -7 15 -10 18 -7 3 3 -2 9 -12 12 -14 6 -15 5 -6 -5z"/>
<path d="M3225 6140 c-3 -6 1 -7 9 -4 18 7 21 14 7 14 -6 0 -13 -4 -16 -10z"/>
<path d="M2415 4880 c-3 -5 -2 -10 4 -10 5 0 13 5 16 10 3 6 2 10 -4 10 -5 0
-13 -4 -16 -10z"/>
<path d="M2316 4254 c-8 -20 -8 -24 2 -24 4 0 8 9 9 20 2 24 -3 26 -11 4z"/>
<path d="M5915 4031 c-3 -5 -2 -12 3 -15 5 -3 9 1 9 9 0 17 -3 19 -12 6z"/>
<path d="M5994 3807 c0 -13 6 -24 13 -24 8 0 9 6 3 17 -5 10 -6 20 -3 24 3 3
2 6 -4 6 -6 0 -10 -10 -9 -23z"/>
<path d="M2460 3019 c0 -5 5 -7 10 -4 6 3 10 8 10 11 0 2 -4 4 -10 4 -5 0 -10
-5 -10 -11z"/>
<path d="M5993 2783 c4 -3 1 -13 -6 -22 -11 -14 -10 -14 5 -2 16 12 16 31 1
31 -4 0 -3 -3 0 -7z"/>
<path d="M2586 2685 c4 -8 10 -12 15 -9 11 6 2 24 -11 24 -5 0 -7 -7 -4 -15z"/>
<path d="M5870 2399 c0 -5 5 -7 10 -4 6 3 10 8 10 11 0 2 -4 4 -10 4 -5 0 -10
-5 -10 -11z"/>
<path d="M5823 2358 c-21 -28 -24 -38 -9 -32 9 3 14 11 13 17 -1 7 4 11 11 9
8 -1 11 2 7 8 -8 13 -10 13 -22 -2z"/>
<path d="M7380 2281 c0 -6 4 -13 10 -16 6 -3 7 1 4 9 -7 18 -14 21 -14 7z"/>
<path d="M5710 2086 c0 -2 7 -7 16 -10 8 -3 12 -2 9 4 -6 10 -25 14 -25 6z"/>
<path d="M8185 1621 c-6 -11 13 -26 22 -17 4 3 1 6 -6 6 -7 0 -9 5 -6 10 3 6
4 10 1 10 -3 0 -7 -4 -11 -9z"/>
<path d="M3673 1067 c0 -8 6 -14 14 -14 9 0 10 4 2 14 -6 7 -12 13 -14 13 -1
0 -2 -6 -2 -13z"/>
<path d="M3730 980 c0 -5 5 -10 11 -10 5 0 7 5 4 10 -3 6 -8 10 -11 10 -2 0
-4 -4 -4 -10z"/>
<path d="M7947 885 c3 -8 9 -12 14 -9 12 7 11 11 -5 17 -10 4 -13 1 -9 -8z"/>
<path d="M7913 848 c-30 -34 -35 -46 -22 -54 8 -4 9 -3 5 4 -6 11 6 16 27 13
4 0 7 4 7 10 0 6 -7 8 -17 4 -13 -4 -12 -1 5 15 20 19 27 30 19 30 -2 0 -13
-10 -24 -22z"/>
<path d="M7946 843 c-6 -14 -5 -15 5 -6 7 7 10 15 7 18 -3 3 -9 -2 -12 -12z"/>
<path d="M3936 814 c-8 -22 -4 -25 11 -9 7 8 9 16 4 19 -5 3 -12 -1 -15 -10z"/>
</g>
</svg>
